<svg style="position: absolute; width: 0; height: 0;" width="0" height="0" version="1.1" xmlns="http://www.w3.org/2000/svg" xmlns:xlink="http://www.w3.org/1999/xlink"><defs><symbol id="chuyidong" viewBox="0 -128 1024 1024"><path d="M686 161 q9 -10 22.5 -10 q13.5 0 24 10.5 q10.5 10.5 10.5 24 q0 13.5 -9 23.5 l-176 175 l176 175 q9 10 9 23.5 q0 13.5 -10.5 24 q-10.5 10.5 -24 10.5 q-13.5 0 -22.5 -10 l-176 -175 l-175 175 q-9 10 -22.5 10 q-13.5 0 -24 -10.5 q-10.5 -10.5 -10.5 -24 q0 -13.5 9 -23.5 l175 -175 l-175 -175 q-9 -10 -9 -23.5 q0 -13.5 10.5 -24 q10.5 -10.5 24 -10.5 q13.5 0 22.5 10 l175 175 l176 -175 Z"></path></symbol><symbol id="chuyidong1" viewBox="0 -128 1024 1024"><path d="M793 350 q19 1 28.5 17.5 q9.5 16.5 0 33 q-9.5 16.5 -28.5 17.5 l-247 0 l0 247 q-1 15 -10.5 24.5 q-9.5 9.5 -23.5 9.5 q-14 0 -23.5 -9.5 q-9.5 -9.5 -10.5 -24.5 l0 -247 l-247 0 q-15 -1 -24.5 -10.5 q-9.5 -9.5 -9.5 -23.5 q0 -14 9.5 -23.5 q9.5 -9.5 24.5 -10.5 l247 0 l0 -247 q1 -15 10.5 -24.5 q9.5 -9.5 23.5 -9.5 q14 0 23.5 9.5 q9.5 9.5 10.5 24.5 l0 247 l247 0 Z"></path></symbol><symbol id="-tainjia" viewBox="0 -128 1024 1024"><path d="M512 828 q90 0 170.5 -33 q80.5 -33 144 -96.5 q63.5 -63.5 97 -143.5 q33.5 -80 33.5 -169.5 q0 -89.5 -33.5 -170 q-33.5 -80.5 -97 -143.5 q-63.5 -63 -144 -96.5 q-80.5 -33.5 -170.5 -33.5 q-90 0 -170.5 33.5 q-80.5 33.5 -144 96.5 q-63.5 63 -97 143.5 q-33.5 80.5 -33.5 170 q0 89.5 33.5 169.5 q33.5 80 97 143.5 q63.5 63.5 144 96.5 q80.5 33 170.5 33 ZM512 6 q77 0 146.5 28.5 q69.5 28.5 123.5 82.5 q54 54 83 123 q29 69 29 145.5 q0 76.5 -29 145 q-29 68.5 -83 123 q-54 54.5 -123.5 83 q-69.5 28.5 -146.5 28.5 q-77 0 -146 -28.5 q-69 -28.5 -123.5 -83 q-54.5 -54.5 -83 -123 q-28.5 -68.5 -28.5 -145 q0 -76.5 28.5 -145.5 q28.5 -69 83 -123 q54.5 -54 123.5 -82.5 q69 -28.5 146 -28.5 ZM739 354 q13 1 21.5 10.5 q8.5 9.5 8 23 q-0.5 13.5 -10 22 q-9.5 8.5 -22.5 8.5 l-191 0 l0 191 q-1 12 -9.5 20.5 q-8.5 8.5 -21.5 9 q-13 0.5 -22.5 -8 q-9.5 -8.5 -10.5 -21.5 l0 -191 l-190 0 q-13 -1 -21.5 -9.5 q-8.5 -8.5 -9 -21.5 q-0.5 -13 8 -22.5 q8.5 -9.5 22.5 -10.5 l190 0 l0 -190 q1 -13 9.5 -21.5 q8.5 -8.5 21.5 -9 q13 -0.5 22.5 8 q9.5 8.5 10.5 22.5 l0 190 l194 0 Z"></path></symbol><symbol id="denglu" viewBox="0 -128 1024 1024"><path d="M631 449 q151 42 246 162.5 q95 120.5 98 284.5 l-926 0 q3 -164 98 -284.5 q95 -120.5 246 -162.5 q-81 -36 -130.5 -109 q-49.5 -73 -50.5 -168 q3 -127 87.5 -212 q84.5 -85 212.5 -88 q128 3 212.5 88 q84.5 85 87.5 212 q-1 95 -50.5 168 q-49.5 73 -130.5 109 Z"></path></symbol><symbol id="yanjing" viewBox="0 -128 1024 1024"><path d="M508 88 q158 2 283.5 82.5 q125.5 80.5 193.5 215.5 q-68 134 -193.5 215 q-125.5 81 -283.5 83 q-158 -2 -283 -83 q-125 -81 -194 -215 q69 -135 194 -215.5 q125 -80.5 283 -82.5 ZM732 239 q15 38 15 81 q-3 102 -70 169 q-67 67 -169 70 q-101 -3 -168.5 -70 q-67.5 -67 -69.5 -169 q0 -43 14 -81 l-11 7 q-85 54 -139 140 q54 85 139 140 q53 33 112.5 50.5 q59.5 17.5 122.5 17.5 q63 0 122.5 -17.5 q59.5 -17.5 112.5 -50.5 q85 -55 140 -140 q-55 -86 -140 -140 l-11 -7 ZM508 291 q-1 -38 -26 -63.5 q-25 -25.5 -63 -25.5 q-38 0 -63.5 25.5 q-25.5 25.5 -25.5 63.5 q0 38 25.5 63 q25.5 25 63.5 25 q38 0 63 -25 q25 -25 26 -63 Z"></path></symbol><symbol id="yanjing1" viewBox="0 -128 1024 1024"><path d="M956 384 q-3 -75 -123.5 -167 q-120.5 -92 -320.5 -101 q-194 9 -317 101 q-123 92 -127 167 q4 75 127 167 q123 92 317 101 q199 -9 319.5 -102 q120.5 -93 124.5 -166 ZM512 165 q91 3 151.5 64.5 q60.5 61.5 62.5 154.5 q-2 93 -62.5 154.5 q-60.5 61.5 -151.5 64.5 q-90 -3 -150.5 -64.5 q-60.5 -61.5 -62.5 -154.5 q2 -93 62.5 -154.5 q60.5 -61.5 150.5 -64.5 ZM512 287 q40 1 67 28.5 q27 27.5 27 68.5 q0 41 -27 68.5 q-27 27.5 -67 27.5 q-40 0 -67 -27.5 q-27 -27.5 -27 -68.5 q0 -41 27 -68.5 q27 -27.5 67 -28.5 Z"></path></symbol><symbol id="mima" viewBox="0 -128 1024 1024"><path d="M137 333 q0 -11 7 -18.5 q7 -7.5 18 -7.5 l691 0 q11 0 18.5 7.5 q7.5 7.5 7.5 18.5 l0 486 q0 11 -7.5 18.5 q-7.5 7.5 -18.5 7.5 l-691 0 q-11 0 -18 -7.5 q-7 -7.5 -7 -18.5 l0 -486 ZM85 819 q1 33 23 54.5 q22 21.5 54 22.5 l691 0 q32 0 54.5 -22.5 q22.5 -22.5 22.5 -54.5 l0 -486 q-1 -33 -22.5 -54.5 q-21.5 -21.5 -54.5 -22.5 l-691 0 q-31 0 -53.5 22.5 q-22.5 22.5 -23.5 54.5 l0 486 ZM290 272 l-51 10 l0 -192 q2 -93 63.5 -154.5 q61.5 -61.5 154.5 -63.5 l89 0 q93 2 154 63.5 q61 61.5 64 154.5 l0 91 q0 1 -4.5 9 q-4.5 8 -19.5 9 q-15 -1 -21.5 -9 q-6.5 -8 -5.5 -9 l0 -91 q-2 -71 -49 -118 q-47 -47 -118 -49 l-89 0 q-71 2 -118 49 q-47 47 -49 118 l0 182 ZM290 272 l-51 10 l0 -192 q2 -93 63.5 -154.5 q61.5 -61.5 154.5 -63.5 l89 0 q93 2 154 63.5 q61 61.5 64 154.5 l0 91 l-51 0 l0 -91 q-2 -71 -49 -118 q-47 -47 -118 -49 l-89 0 q-71 2 -118 49 q-47 47 -49 118 l0 182 ZM496 449 q0 -15 12.5 -22 q12.5 -7 25.5 0 q13 7 13 22 l0 241 q0 14 -13 21.5 q-13 7.5 -25.5 0 q-12.5 -7.5 -12.5 -21.5 l0 -241 Z"></path></symbol><symbol id="mima1" viewBox="0 -128 1024 1024"><path d="M114 783 q1 48 33 80 q32 32 81 33 l568 0 q49 -1 81 -33 q32 -32 33 -80 l0 -399 q-1 -48 -33 -80.5 q-32 -32.5 -81 -33.5 l-568 0 q-49 1 -81 33 q-32 32 -33 81 l0 399 ZM171 384 q0 -24 16.5 -40 q16.5 -16 40.5 -17 l568 0 q25 1 41 17 q16 16 16 40 l0 398 q0 24 -16.5 40.5 q-16.5 16.5 -40.5 16.5 l-568 0 q-25 0 -41 -16 q-16 -16 -16 -41 l0 -398 ZM455 668 q1 25 17 41 q16 16 40 16 q24 0 40 -16 q16 -16 17 -41 l0 -170 q-1 -25 -17 -41 q-16 -16 -40 -16 q-24 0 -40 16.5 q-16 16.5 -17 40.5 l0 170 ZM683 156 l0 -56 q-2 -73 -50 -121 q-48 -48 -121 -50 q-73 2 -121 50 q-48 48 -50 121 l0 170 l-57 0 l0 -170 q3 -97 67 -161.5 q64 -64.5 161 -66.5 q46 0 87.5 17.5 q41.5 17.5 73.5 49.5 q32 32 49 73.5 q17 41.5 18 87.5 l0 56 l-57 0 Z"></path></symbol><symbol id="yanjing2" viewBox="0 -128 1024 1024"><path d="M848 267.78 q0 1 -20 22 q-20 21 -57 48 l62 63 q6 7 6 16.5 q0 9.5 -7.5 16.5 q-7.5 7 -17 7 q-9.5 0 -16.5 -7 l-65 -66 q-48 34 -109 57 l26 83 q2 10 -2.5 18.5 q-4.5 8.5 -14.5 11.5 q-2 2 -6 1 q-7 0 -14 -5 q-7 -5 -9 -13 l-26 -83 q-29 5 -59.5 5 q-30.5 0 -59.5 -5 l-26 85 q-2 8 -8.5 12.5 q-6.5 4.5 -14.5 4.5 l-7 0 q-10 -3 -14.5 -11 q-4.5 -8 -2.5 -18 l26 -85 q-61 -23 -109 -56 l-66 67 q-8 7 -17.5 7 q-9.5 0 -13.5 -7 q-8 -7 -8.5 -16.5 q-0.5 -9.5 6.5 -17.5 l62 -62 q-34 -28 -54 -48 q-20 -20 -22 -24 q-6 -7 -5.5 -17 q0.5 -10 8 -16.5 q7.5 -6.5 17 -5.5 q9.5 1 16.5 8 q4 11 89 80 q85 69 204 79 q121 -10 204 -78.5 q83 -68.5 87 -79.5 q7 -8 16 -9.5 q9 -1.5 17 5 q8 6.5 9.5 16 q1.5 9.5 -4.5 17.5 Z"></path></symbol><symbol id="yanjing3" viewBox="0 -128 1024 1024"><path d="M999 384 q-4 -82 -135 -182 q-131 -100 -349 -110 q-211 10 -345 110.5 q-134 100.5 -139 181.5 q5 81 138.5 181.5 q133.5 100.5 345.5 110.5 q217 -10 348.5 -111.5 q131.5 -101.5 135.5 -180.5 ZM515 146 q47 0 90 18.5 q43 18.5 76 52 q33 33.5 50.5 77 q17.5 43.5 17.5 90.5 q0 47 -17.5 90.5 q-17.5 43.5 -50.5 77 q-33 33.5 -76 52 q-43 18.5 -90 18.5 q-100 -3 -165.5 -70.5 q-65.5 -67.5 -67.5 -167.5 q2 -100 67.5 -167.5 q65.5 -67.5 165.5 -70.5 ZM519 232 q30 0 57.5 12 q27.5 12 48.5 33.5 q21 21.5 32 49 q11 27.5 10 57.5 q0 47 -25.5 84.5 q-25.5 37.5 -69 55.5 q-43.5 18 -88 8.5 q-44.5 -9.5 -77.5 -43 q-33 -33.5 -41 -78 q-8 -44.5 11 -88 q19 -43.5 57 -68 q38 -24.5 85 -23.5 Z"></path></symbol><symbol id="yanjing4" viewBox="0 -128 1024 1024"><path d="M976 378 q1 6 -1 13 l-1 4 q-1 2 -2 5 l-1 2 q-14 36 -132 154.5 q-118 118.5 -326 134.5 q-208 -16 -325 -135 q-117 -119 -130 -155 l-4 -9 l-1 -4 q-1 -4 0 -8 l4 -10 q1 -2 2 -3 q13 -36 130 -155 q117 -119 325 -135 q208 16 325.5 134 q117.5 118 131.5 155 l3 6 l1 4 q1 1 1 2 ZM514 627 q159 -10 260 -100.5 q101 -90.5 131 -142.5 q-30 -52 -131 -142.5 q-101 -90.5 -260 -100.5 q-159 10 -259.5 101 q-100.5 91 -129.5 142 q12 18 36.5 48.5 q24.5 30.5 61.5 66.5 q52 50 125.5 88 q73.5 38 165.5 40 ZM372 384 q1 -59 41.5 -98.5 q40.5 -39.5 101.5 -40.5 q61 1 101.5 40.5 q40.5 39.5 41.5 98.5 q-1 59 -41.5 98.5 q-40.5 39.5 -101.5 40.5 q-61 -1 -101.5 -40.5 q-40.5 -39.5 -41.5 -98.5 Z"></path></symbol><symbol id="yanjing5" viewBox="0 -128 1024 1024"><path d="M521 143 q182 15 282.5 121.5 q100.5 106.5 101.5 121.5 q-3 15 -110 119.5 q-107 104.5 -274 119.5 q-167 -15 -273.5 -119.5 q-106.5 -104.5 -110.5 -119.5 q2 -15 102 -121.5 q100 -106.5 282 -121.5 ZM769 478 q23 -19 42 -39 q19 -20 35 -37 q8 -8 13 -16 l-11 -15 q-17 -21 -34 -40.5 q-17 -19.5 -37 -38.5 q-58 -53 -121.5 -82.5 q-63.5 -29.5 -134.5 -29.5 q-71 0 -135 29.5 q-64 29.5 -121 82.5 q-40 37 -72 79 l-10 15 l12 16 q18 21 37 39.5 q19 18.5 40 36.5 q60 53 122.5 81.5 q62.5 28.5 126 28.5 q63.5 0 126 -29.5 q62.5 -29.5 122.5 -80.5 ZM522 243 q59 2 99 42 q40 40 41 99 q-1 59 -40.5 99 q-39.5 40 -99.5 42 q-60 -2 -100 -41 q-40 -39 -41 -100 q1 -59 40.5 -99 q39.5 -40 100.5 -42 ZM521 483 q43 0 71.5 -28.5 q28.5 -28.5 27.5 -70.5 q-1 -42 -29.5 -70.5 q-28.5 -28.5 -69.5 -28.5 q-42 0 -70.5 28.5 q-28.5 28.5 -28.5 70.5 q0 42 27.5 70.5 q27.5 28.5 71.5 28.5 Z"></path></symbol><symbol id="yanjing6" viewBox="0 -128 1024 1024"><path d="M521 123 q186 16 309.5 130 q123.5 114 127.5 131 q-4 16 -127.5 130 q-123.5 114 -309.5 131 q-186 -17 -309.5 -131 q-123.5 -114 -128.5 -130 q5 -17 128.5 -131 q123.5 -114 309.5 -130 ZM694 383 q-2 -74 -51 -122.5 q-49 -48.5 -122 -50.5 q-74 2 -122.5 50.5 q-48.5 48.5 -50.5 122.5 q2 73 50.5 122 q48.5 49 122.5 51 q73 -2 122 -50.5 q49 -48.5 51 -122.5 ZM521 289 q40 2 67 28.5 q27 26.5 28 66.5 q-1 40 -28 66.5 q-27 26.5 -67 26.5 q-40 0 -66.5 -26.5 q-26.5 -26.5 -26.5 -66.5 q0 -40 26.5 -66.5 q26.5 -26.5 66.5 -28.5 Z"></path></symbol><symbol id="yanjing7" viewBox="0 -128 1024 1024"><path d="M983 383 q14 16 0 40 q-9 6 -20.5 6 q-11.5 0 -20.5 -6 l-73 -75 q0 -3 -2.5 -6.5 q-2.5 -3.5 -2.5 -7.5 q-29 22 -59.5 42.5 q-30.5 20.5 -63.5 36.5 l44 94 q4 11 0 20.5 q-4 9.5 -14.5 13 q-10.5 3.5 -20.5 0 q-10 -3.5 -14 -15.5 l-44 -97 q-40 11 -81 20 q-41 9 -86 9 l0 108 q0 30 -30 30 q-14 -1 -21.5 -10 q-7.5 -9 -7.5 -20 l0 -108 q-38 -4 -73.5 -14 q-35.5 -10 -69.5 -20 l-44 93 q-4 10 -13.5 14 q-9.5 4 -20.5 0 q-11 -4 -15 -13 q-4 -9 0 -21 l44 -93 q-34 -16 -65 -37 q-31 -21 -58 -47 l0 3 q-1 4 -5 8 l-73 78 q-9 7 -20 7 q-11 0 -19 -8 q-8 -8 -8 -19 q0 -11 7 -20 l74 -78 l3 -3 q3 -2 7 -2 q-23 -24 -44 -54 q0 -4 -2.5 -10 q-2.5 -6 -2.5 -10 q0 -14 9 -21.5 q9 -7.5 20 -7.5 q7 0 11.5 0.5 q4.5 0.5 8.5 4.5 q67 100 169.5 157.5 q102.5 57.5 228.5 58.5 q123 -2 226.5 -58 q103.5 -56 166.5 -154 q4 -3 8.5 -6 q4.5 -3 11.5 -3 q14 0 21.5 9 q7.5 9 7.5 20 q0 7 -2 12 l-8 13 q-10 17 -24.5 35.5 q-14.5 18.5 -28.5 32.5 q7 -1 14 5 l75 74 Z"></path></symbol></defs></svg>